<svg width="54" height="54" viewBox="0 0 54 54" fill="none" xmlns="http://www.w3.org/2000/svg">
<path d="M51.2 10.6C51.2 17.6 45.5 23.2 38.6 23.2H14.6C7.59998 23.2 2 17.5 2 10.6C2 10.2 2.29998 10 2.59998 10H50.6C50.9 10 51.2 10.2 51.2 10.6Z" fill="#ABE1FA"/>
<path d="M50.6 10H2.59998C2.29998 10 2 10.3 2 10.6C2 17.6 7.69998 23.2 14.6 23.2H38.6C45.6 23.2 51.2 17.5 51.2 10.6C51.2 10.2 50.9 10 50.6 10ZM38.6 22H14.6C8.49998 22 3.59995 17.2 3.19995 11.2H49.9C49.6 17.2 44.7 22 38.6 22Z" fill="#265EDE"/>
<path d="M23.6 6.2H16.6C16.3 6.2 16 5.9 16 5.6C16 2.5 18.5 0 21.6 0H28.6C28.9 0 29.2 0.3 29.2 0.6C29.2 3.7 26.7 6.2 23.6 6.2ZM17.3 5H23.6C25.8 5 27.6 3.4 27.9 1.2H21.6C19.4 1.2 17.6 2.9 17.3 5Z" fill="#265EDE"/>
<path d="M35.6 53.2H17.6C17.3 53.2 17 52.9 17 52.6C17 48.9 20 46 23.6 46H29.6C33.3 46 36.2 49 36.2 52.6C36.2 52.9 35.9 53.2 35.6 53.2ZM18.3 52H35C34.7 49.3 32.4 47.2 29.7 47.2H23.7C20.8 47.2 18.6 49.3 18.3 52Z" fill="#265EDE"/>
<path d="M24.6 47.2C24.3 47.2 24 46.9 24 46.6V34.6C24 34.3 24.3 34 24.6 34C24.9 34 25.2 34.3 25.2 34.6V46.6C25.2 46.9 24.9 47.2 24.6 47.2Z" fill="#265EDE"/>
<path d="M24.6 35.2C24.3 35.2 24 34.9 24 34.6V22.6C24 22.3 24.3 22 24.6 22C24.9 22 25.2 22.3 25.2 22.6V34.6C25.2 34.9 24.9 35.2 24.6 35.2Z" fill="#265EDE"/>
<path d="M28.6 47.2C28.3 47.2 28 46.9 28 46.6V34.6C28 34.3 28.3 34 28.6 34C28.9 34 29.2 34.3 29.2 34.6V46.6C29.2 46.9 28.9 47.2 28.6 47.2Z" fill="#265EDE"/>
<path d="M28.6 35.2C28.3 35.2 28 34.9 28 34.6V22.6C28 22.3 28.3 22 28.6 22C28.9 22 29.2 22.3 29.2 22.6V34.6C29.2 34.9 28.9 35.2 28.6 35.2Z" fill="#265EDE"/>
<path d="M24.6 41.2H15.6C15.3 41.2 15 40.9 15 40.6C15 40.3 15.3 40 15.6 40H24.6C24.9 40 25.2 40.3 25.2 40.6C25.2 40.9 24.9 41.2 24.6 41.2Z" fill="#265EDE"/>
<path d="M34.6 41.2H28.6C28.3 41.2 28 40.9 28 40.6C28 40.3 28.3 40 28.6 40H34.6C35.9 40 37 38.9 37 37.6C37 36.3 35.9 35.2 34.6 35.2H18.6C16.6 35.2 15 33.6 15 31.6C15 29.6 16.6 28 18.6 28H24.6C24.9 28 25.2 28.3 25.2 28.6C25.2 28.9 24.9 29.2 24.6 29.2H18.6C17.3 29.2 16.2 30.3 16.2 31.6C16.2 32.9 17.3 34 18.6 34H34.6C36.6 34 38.2 35.6 38.2 37.6C38.2 39.6 36.6 41.2 34.6 41.2Z" fill="#265EDE"/>
<path d="M33.6 29.2H28.6C28.3 29.2 28 28.9 28 28.6C28 28.3 28.3 28 28.6 28H33.6C36.6 28 39 25.6 39 22.6C39 22.3 39.3 22 39.6 22C39.9 22 40.2 22.3 40.2 22.6C40.2 26.3 37.3 29.2 33.6 29.2Z" fill="#265EDE"/>
<path d="M39.6 11.2C39.3 11.2 39 10.9 39 10.6C39 5.4 34.8 1.2 29.6 1.2H22.6C22.3 1.2 22 0.9 22 0.6C22 0.3 22.3 0 22.6 0H29.6C35.5 0 40.2 4.8 40.2 10.6C40.2 10.9 39.9 11.2 39.6 11.2Z" fill="#265EDE"/>
<path d="M37.6 53.2H15.6C15.3 53.2 15 52.9 15 52.6C15 52.3 15.3 52 15.6 52H37.6C37.9 52 38.2 52.3 38.2 52.6C38.2 52.9 37.9 53.2 37.6 53.2Z" fill="#265EDE"/>
<path d="M52.6 11.2H0.599976C0.299976 11.2 0 10.9 0 10.6C0 10.3 0.299976 10 0.599976 10H52.6C52.9 10 53.2 10.3 53.2 10.6C53.2 10.9 52.9 11.2 52.6 11.2Z" fill="#265EDE"/>
</svg>
