<svg width="54" height="54" viewBox="0 0 54 54" fill="none" xmlns="http://www.w3.org/2000/svg">
<path d="M53.2 39.1V42.1C53.2 42.4 52.9 42.7 52.6 42.7H0.600006C0.200006 42.7 0 42.4 0 42.1V32.1C0 30.1 1.60001 28.5 3.60001 28.5H6.60001C10.2 28.5 13.2 31.5 13.2 35.1C13.2 35.6 13.1 36.1 12.8 36.5H50.6C52.1 36.5 53.2 37.6 53.2 39.1Z" fill="#ABE1FA"/>
<path d="M26.6 27.2C19.1 27.2 13 21.1 13 13.6C13 6.10001 19.1 0 26.6 0C34.1 0 40.2 6.10001 40.2 13.6C40.2 21.1 34.1 27.2 26.6 27.2ZM26.6 1.20001C19.8 1.20001 14.2 6.80001 14.2 13.6C14.2 20.4 19.8 26 26.6 26C33.4 26 39 20.4 39 13.6C39 6.80001 33.4 1.20001 26.6 1.20001Z" fill="#265EDE"/>
<path d="M28.9 21.2H24.2C23.9 21.2 23.6 20.9 23.6 20.6V16.6H19.6C19.3 16.6 19 16.3 19 16V11.3C19 11 19.3 10.7 19.6 10.7H23.6V6.69998C23.6 6.39998 23.9 6.09998 24.2 6.09998H28.9C29.2 6.09998 29.5 6.39998 29.5 6.69998V10.7H33.5C33.8 10.7 34.1 11 34.1 11.3V16C34.1 16.3 33.8 16.6 33.5 16.6H29.5V20.6C29.6 20.9 29.3 21.2 28.9 21.2ZM24.9 20H28.3V16C28.3 15.7 28.6 15.4 28.9 15.4H32.9V12H28.9C28.6 12 28.3 11.7 28.3 11.4V7.39996H24.9V11.4C24.9 11.7 24.6 12 24.3 12H20.3V15.4H24.3C24.6 15.4 24.9 15.7 24.9 16V20Z" fill="#265EDE"/>
<path d="M50.6 36.5H0.600006C0.200006 36.5 0 36.8 0 37.1V42.1C0 42.4 0.300006 42.7 0.600006 42.7H52.6C53 42.7 53.2 42.4 53.2 42.1V39.1C53.2 37.6 52.1 36.5 50.6 36.5ZM52 41.5H1.20001V37.7H50.6C51.4 37.7 52 38.3 52 39.1V41.5Z" fill="#265EDE"/>
<path d="M6.60001 28.5H3.60001C1.60001 28.5 0 30.1 0 32.1V37.1C0 37.4 0.300006 37.7 0.600006 37.7H10.6C11.5 37.7 12.4 37.2 12.8 36.5C13.1 36.1 13.2 35.6 13.2 35.1C13.2 31.4 10.2 28.5 6.60001 28.5ZM1.20001 36.5V32.1C1.20001 30.8 2.30001 29.7 3.60001 29.7H6.60001C9.60001 29.7 12 32.1 12 35.1C12 35.9 11.4 36.5 10.6 36.5H1.20001Z" fill="#265EDE"/>
<path d="M52.6 53.2C52.3 53.2 52 52.9 52 52.6V31.1C52 30.8 52.3 30.5 52.6 30.5C52.9 30.5 53.2 30.8 53.2 31.1V52.6C53.2 52.9 52.9 53.2 52.6 53.2Z" fill="#265EDE"/>
<path d="M0.600006 53.2C0.300006 53.2 0 52.9 0 52.6V23.1C0 22.8 0.300006 22.5 0.600006 22.5C0.900006 22.5 1.20001 22.8 1.20001 23.1V52.6C1.20001 52.9 0.900006 53.2 0.600006 53.2Z" fill="#265EDE"/>
</svg>
