<svg width="54" height="54" viewBox="0 0 54 54" fill="none" xmlns="http://www.w3.org/2000/svg">
<path d="M53.2 42.6C53.1 44.1 51.4999 45.1 51.2999 45.3C42.8999 51.7 33.4 53.4 25.6 53.4C18.1 53.4 12.1 51.8 10.3 51.3C10.2 51.5 9.99999 51.6 9.79999 51.8V35.5C9.99999 35.6 10.2 35.8 10.3 36.1C19 35.9 22 37.9 24.4 39.4C26.7 40.9 28.4999 42 34.2999 41.2C35.4999 41 36.3 41.3 36.9 41.7C40.1 41 42.6 40 44.4 39.2C46.8 38.2 48.4 37.5 49.4 38.6C50.1 39.2 50.2 40 50 40.6C50.8 40.4 51.4 40.4 52 40.8C53.1 41.4 53.2999 42.1 53.2 42.6Z" fill="#ABE1FA"/>
<path d="M50.2999 40.4999C50.1999 41.0999 49.8 41.6999 49.5 42.0999C49.4 42.1999 49.3999 42.1999 49.2999 42.2999C49.0999 42.3999 48.7999 42.3999 48.5999 42.1999C48.2999 41.9999 48.2999 41.5999 48.5999 41.2999C48.5999 41.2999 48.5999 41.2999 48.6999 41.1999C48.7999 40.9999 49.0999 40.5999 49.0999 40.0999C49.0999 39.8999 48.9999 39.5999 48.7999 39.3999C48.2999 38.8999 46.9999 39.4999 45.0999 40.2999C43.2999 41.0999 41 42.0999 37.9 42.7999C37.7 42.8999 37.4999 42.8999 37.2999 42.8999H37.1999C36.8999 42.8999 36.5999 42.6999 36.5999 42.3999C36.4999 42.0999 36.6999 41.6999 37.0999 41.5999C37.0999 41.5999 37.0999 41.5999 37.1999 41.5999C40.3999 40.8999 42.8999 39.8999 44.6999 39.0999C47.0999 38.0999 48.6999 37.3999 49.6999 38.4999C50.3999 39.0999 50.4999 39.8999 50.2999 40.4999Z" fill="#265EDE"/>
<path d="M52.2999 40.6999C51.7999 40.2999 51.1999 40.1999 50.2999 40.4999C49.7999 40.5999 49.2999 40.8999 48.7 41.0999C48.4 41.1999 48.0999 41.3999 47.7999 41.4999C45.5999 42.4999 42.5 43.9999 37.9 45.0999C38.1 44.4999 38.2 43.8999 38.1 43.2999C38.1 43.0999 38 42.8999 37.9 42.6999C37.7 42.2999 37.4 41.8999 37.1 41.5999C36.5 41.1999 35.7 40.8999 34.5 41.0999C28.7 41.9999 26.9 40.7999 24.6 39.2999C22.2 37.6999 19.2 35.7999 10.5 35.9999C10.4 35.9999 10.2 35.9999 10.1 35.9999H10C9.7 35.9999 9.5 36.2999 9.5 36.5999V50.3999C9.5 50.6999 9.69996 50.8999 9.89996 50.9999C9.89996 50.9999 9.9 50.9999 10 50.9999C10.1 50.9999 10.2 51.0999 10.5 51.1999C12.3 51.6999 18.1999 53.2999 25.7999 53.2999C33.5999 53.2999 43.1 51.5999 51.5 45.1999C51.7 45.0999 53.3 43.9999 53.4 42.4999C53.3 42.0999 53.0999 41.3999 52.2999 40.6999ZM50.6 44.1999C34.4 56.5999 13.9 50.9999 10.7 49.9999V37.1999C18.8 37.0999 21.5 38.7999 23.9 40.2999C26.3 41.7999 28.4 43.1999 34.7 42.1999C35.9 41.9999 36.7 42.4999 36.9 43.3999C36.9 43.4999 36.9 43.5999 36.9 43.6999C36.9 44.4999 36.4 45.2999 35.6 45.4999C35.3 45.5999 35.1 45.8999 35.1 46.1999C35.2 46.4999 35.4 46.6999 35.7 46.6999H35.7999C41.7999 45.5999 45.6999 43.6999 48.2999 42.4999C48.5999 42.2999 48.9999 42.1999 49.2999 41.9999C50.0999 41.5999 50.7999 41.3999 51.2 41.3999C51.2999 41.3999 51.4 41.3999 51.5 41.4999C52 41.8999 52 42.1999 52 42.2999C51.9 43.1999 51 43.9999 50.6 44.1999Z" fill="#265EDE"/>
<path d="M29.7 47.3999C27.6 47.3999 25.3 47.1999 23.2 46.4999C22.9 46.3999 22.6999 45.9999 22.7999 45.6999C22.8999 45.3999 23.3 45.1999 23.6 45.2999C27.4 46.5999 32.9 46.0999 35.5 45.5999C35.8 45.4999 36.2 45.7999 36.2 46.0999C36.3 46.3999 36 46.7999 35.7 46.7999C35.4 46.9999 32.8 47.3999 29.7 47.3999Z" fill="#265EDE"/>
<path d="M10.5 36C10.4 35.8 10.2 35.6 10 35.4C9.8 35.2 9.49998 35.1 9.09998 35.1H1.59998C0.699976 35.1 0 35.8 0 36.7V50.2C0 51.1 0.699976 51.8 1.59998 51.8H9.09998C9.39998 51.8 9.7 51.7 10 51.5C10.2 51.4 10.3 51.2 10.5 51C10.7 50.7 10.8 50.4 10.8 50.1V36.8C10.7 36.5 10.7 36.2 10.5 36ZM9.09998 50.7H1.59998C1.39998 50.7 1.19995 50.5 1.19995 50.3V36.8C1.19995 36.6 1.39998 36.4 1.59998 36.4H9.09998C9.29998 36.4 9.5 36.6 9.5 36.8V50.3C9.5 50.5 9.29998 50.7 9.09998 50.7Z" fill="#265EDE"/>
<path d="M6.59998 48.7999C7.15226 48.7999 7.59998 48.3522 7.59998 47.7999C7.59998 47.2476 7.15226 46.7999 6.59998 46.7999C6.04769 46.7999 5.59998 47.2476 5.59998 47.7999C5.59998 48.3522 6.04769 48.7999 6.59998 48.7999Z" fill="#265EDE"/>
<path d="M49 35.4C48.9 35.4 48.7999 35.4 48.7 35.3C48.4 35.1 48.3 34.7 48.5 34.4C50.8 30.9 52 26.9 52 22.7C52 10.9 42.4 1.3 30.6 1.3C18.8 1.3 9.19995 10.9 9.19995 22.7C9.19995 26.2 9.99998 29.6 11.6 32.6C11.8 32.9 11.6 33.3 11.3 33.4C11 33.6 10.6 33.4 10.5 33.1C8.8 29.9 7.89996 26.2 7.89996 22.6C7.89996 10.1 18 0 30.5 0C43 0 53.1 10.1 53.1 22.6C53.1 27 51.8 31.3 49.4 34.9C49.4 35.3 49.2 35.4 49 35.4Z" fill="#265EDE"/>
<path d="M30.6 35.4C30.5 35.4 30.3999 35.4 30.2999 35.3C29.7999 35 17.4 27.5 17.4 19.4C17.4 15.4 20.6999 12.1 24.7999 12.1C27.0999 12.1 29.2 13.2 30.6 14.9C32 13.2 34.1 12.1 36.4 12.1C40.5 12.1 43.7999 15.4 43.7999 19.4C43.7999 27.5 31.5 35 30.9 35.3C30.8 35.4 30.7 35.4 30.6 35.4ZM24.7999 13.4C21.3999 13.4 18.7 16.1 18.7 19.4C18.7 26.1 28.7 32.8 30.6 34C32.5 32.8 42.5 26.1 42.5 19.4C42.5 16.1 39.7 13.4 36.4 13.4C34.2 13.4 32.2 14.5 31.1 16.4C30.9 16.8 30.3 16.8 30 16.4C29 14.6 26.8999 13.4 24.7999 13.4Z" fill="#265EDE"/>
</svg>
