<svg width="54" height="54" viewBox="0 0 54 54" fill="none" xmlns="http://www.w3.org/2000/svg">
<path d="M42.2 19.1V26.4C42.2 26.7 41.9 26.9999 41.6 26.9999H34.9V33.6999C34.9 34.0999 34.6 34.2999 34.3 34.2999H27C26.7 34.2999 26.4 33.9999 26.4 33.6999V26.9999H19.6C19.2 26.9999 19 26.7 19 26.4V19.1C19 18.8 19.3 18.4999 19.6 18.4999H26.3V11.7999C26.3 11.3999 26.6 11.2 26.9 11.2H34.2C34.5 11.2 34.8 11.4999 34.8 11.7999V18.4999H41.5C42 18.4999 42.2 18.8 42.2 19.1Z" fill="#ABE1FA"/>
<path d="M37.2 42.8999C36.9 42.8999 36.7 42.6999 36.6 42.3999C36.5 42.0999 36.7 41.6999 37.1 41.6999C40.4 40.9999 42.9 39.8999 44.7 39.1999C47.1 38.1999 48.7 37.4999 49.8 38.5999C51.1 39.8999 50.3 41.4999 49.7 42.1999C49.5 42.4999 49.1 42.4999 48.8 42.1999C48.5 41.9999 48.5 41.5999 48.7 41.2999C48.8 41.1999 49.6 40.1999 48.9 39.3999C48.4 38.8999 47.1 39.4999 45.2 40.2999C43.3 41.0999 40.7 42.1999 37.4 42.8999C37.3 42.8999 37.2 42.8999 37.2 42.8999Z" fill="#265EDE"/>
<path d="M25.7 53.4C16.7 53.4 9.99999 51.1 9.89999 51.1C9.59999 51 9.5 50.8 9.5 50.5V36.7C9.5 36.4 9.80001 36.1 10.1 36.1C19.1 35.9 22.1 37.8 24.6 39.4C26.9 40.9 28.7 42 34.5 41.2C36.8 40.9 37.9 42.2 38.1 43.4C38.2 44 38.1 44.7 37.9 45.2C42.5 44.1 45.6 42.6 47.8 41.6C50 40.6 51.3 39.9 52.3 40.7C53.1 41.4 53.2 42.1 53.2 42.5C53.1 43.9 51.5 45 51.4 45.2C43 51.7 33.5 53.4 25.7 53.4ZM10.7 50C13.9 51 34.5 56.6 50.6 44.2C51 44 51.9 43.2 51.9 42.5C51.9 42.4 51.9 42.1 51.4 41.7C51 41.4 49.8 42 48.2 42.7C45.6 43.9 41.7 45.7 35.7 46.9C35.4 47 35 46.7 35 46.4C34.9 46.1 35.2 45.7 35.5 45.7C36.4 45.5 36.9 44.5 36.8 43.6C36.6 42.6 35.9 42.2 34.6 42.4C28.3 43.3 26.2 42 23.8 40.5C21.4 39 18.7 37.2 10.6 37.4V50H10.7Z" fill="#265EDE"/>
<path d="M29.7 47.3999C27.6 47.3999 25.3 47.1999 23.2 46.4999C22.9 46.3999 22.7 45.9999 22.8 45.6999C22.9 45.3999 23.3 45.1999 23.6 45.2999C27.4 46.5999 32.9 46.0999 35.5 45.5999C35.8 45.4999 36.2 45.7999 36.2 46.0999C36.3 46.3999 36 46.7999 35.7 46.7999C35.4 46.9999 32.8 47.3999 29.7 47.3999Z" fill="#265EDE"/>
<path d="M9.10001 52H1.60001C0.700006 52 0 51.3 0 50.4V36.8C0 35.9 0.700006 35.2 1.60001 35.2H9.10001C10 35.2 10.7 35.9 10.7 36.8V50.3C10.7 51.2 10 52 9.10001 52ZM1.60001 36.4C1.40001 36.4 1.20001 36.6 1.20001 36.8V50.3C1.20001 50.5 1.40001 50.7 1.60001 50.7H9.10001C9.30001 50.7 9.5 50.5 9.5 50.3V36.8C9.5 36.6 9.30001 36.4 9.10001 36.4H1.60001Z" fill="#265EDE"/>
<path d="M6.60001 48.7999C7.15229 48.7999 7.60001 48.3522 7.60001 47.7999C7.60001 47.2476 7.15229 46.7999 6.60001 46.7999C6.04772 46.7999 5.60001 47.2476 5.60001 47.7999C5.60001 48.3522 6.04772 48.7999 6.60001 48.7999Z" fill="#265EDE"/>
<path d="M49 35.4C48.9 35.4 48.8 35.4 48.7 35.3C48.4 35.1 48.3 34.7 48.5 34.4C50.8 30.9 52 26.9 52 22.7C52 10.9 42.4 1.3 30.6 1.3C18.8 1.3 9.20001 10.9 9.20001 22.7C9.20001 26.2 10 29.6 11.6 32.6C11.8 32.9 11.6 33.3 11.3 33.4C11 33.6 10.6 33.4 10.5 33.1C8.8 29.9 7.89999 26.2 7.89999 22.6C7.89999 10.1 18 0 30.5 0C43 0 53.1 10.1 53.1 22.6C53.1 27 51.8 31.3 49.4 34.9C49.4 35.3 49.2 35.4 49 35.4Z" fill="#265EDE"/>
<path d="M41.6 18.4999H34.9V11.7999C34.9 11.3999 34.6 11.2 34.3 11.2H27C26.7 11.2 26.4 11.4999 26.4 11.7999V18.4999H19.6C19.2 18.4999 19 18.8 19 19.1V26.4C19 26.7 19.3 26.9999 19.6 26.9999H26.3V33.6999C26.3 34.0999 26.6 34.2999 26.9 34.2999H34.2C34.5 34.2999 34.8 33.9999 34.8 33.6999V26.9999H41.5C41.9 26.9999 42.1 26.7 42.1 26.4V19.1C42.2 18.8 42 18.4999 41.6 18.4999ZM41 25.7999H34.3C33.9 25.7999 33.7 26.1 33.7 26.4V33.1H27.6V26.4C27.6 26 27.3 25.7999 27 25.7999H20.3V19.7999H27C27.4 19.7999 27.6 19.4999 27.6 19.1999V12.4999H33.7V19.1999C33.7 19.5999 34 19.7999 34.3 19.7999H41V25.7999Z" fill="#265EDE"/>
</svg>
