<svg width="36" height="54" viewBox="0 0 36 54" fill="none" xmlns="http://www.w3.org/2000/svg">
<path d="M15 10.3C15 11.6 13.9 12.7 12.6 12.7C11.3 12.7 10.2 11.6 10.2 10.3C10.2 9.00002 11.3 7.90002 12.6 7.90002C13.9 7.90002 15 9.00002 15 10.3Z" fill="#ABE1FA"/>
<path d="M25 42.9C25 44.2 23.9 45.3 22.6 45.3C21.3 45.3 20.2 44.2 20.2 42.9C20.2 41.6 21.3 40.5 22.6 40.5C23.9 40.6 25 41.6 25 42.9Z" fill="#ABE1FA"/>
<path d="M34.6 53.2C34.3 53.2 34 52.9 34 52.6C34 45.9 31.2 39.5 26.2 35.1L8.2 19C3 14.3 0 7.60001 0 0.600006C0 0.300006 0.299998 0 0.599998 0C0.899998 0 1.2 0.300006 1.2 0.600006C1.2 7.30001 3.99999 13.7 8.99999 18.1L27 34.2C32.2 38.9 35.2 45.6 35.2 52.6C35.2 52.9 34.9 53.2 34.6 53.2Z" fill="#265EDE"/>
<path d="M0.599998 53.2C0.299998 53.2 0 52.9 0 52.6C0 45.5 3 38.8 8.2 34.2L26.2 18.1C31.1 13.7 34 7.30001 34 0.600006C34 0.300006 34.3 0 34.6 0C34.9 0 35.2 0.300006 35.2 0.600006C35.2 7.70001 32.2 14.4 27 19L8.99999 35.1C4.09999 39.5 1.2 45.9 1.2 52.6C1.2 52.9 0.899998 53.2 0.599998 53.2Z" fill="#265EDE"/>
<path d="M34.6 3.20001H0.700005C0.400005 3.20001 0.100006 2.90001 0.100006 2.60001C0.100006 2.30001 0.400005 2 0.700005 2H34.6C34.9 2 35.2 2.30001 35.2 2.60001C35.2 2.90001 34.9 3.20001 34.6 3.20001Z" fill="#265EDE"/>
<path d="M32.6 10.8999H15.1C14.8 10.8999 14.5 10.5999 14.5 10.2999C14.5 9.99994 14.8 9.69995 15.1 9.69995H32.6C32.9 9.69995 33.2 9.99994 33.2 10.2999C33.2 10.5999 32.9 10.8999 32.6 10.8999Z" fill="#265EDE"/>
<path d="M10.1 10.8999H2.6C2.3 10.8999 2 10.5999 2 10.2999C2 9.99994 2.3 9.69995 2.6 9.69995H10.1C10.4 9.69995 10.7 9.99994 10.7 10.2999C10.7 10.5999 10.4 10.8999 10.1 10.8999Z" fill="#265EDE"/>
<path d="M27.3 18.6H7.89999C7.59999 18.6 7.29999 18.3 7.29999 18C7.29999 17.7 7.59999 17.4 7.89999 17.4H27.3C27.6 17.4 27.9 17.7 27.9 18C27.9 18.3 27.6 18.6 27.3 18.6Z" fill="#265EDE"/>
<path d="M27.3 35.8999H7.89999C7.59999 35.8999 7.29999 35.5999 7.29999 35.2999C7.29999 34.9999 7.59999 34.7 7.89999 34.7H27.3C27.6 34.7 27.9 34.9999 27.9 35.2999C27.9 35.5999 27.6 35.8999 27.3 35.8999Z" fill="#265EDE"/>
<path d="M32.6 43.6H25.1C24.8 43.6 24.5 43.3 24.5 43C24.5 42.7 24.8 42.4 25.1 42.4H32.6C32.9 42.4 33.2 42.7 33.2 43C33.2 43.3 32.9 43.6 32.6 43.6Z" fill="#265EDE"/>
<path d="M20.1 43.6H2.6C2.3 43.6 2 43.3 2 43C2 42.7 2.3 42.4 2.6 42.4H20.1C20.4 42.4 20.7 42.7 20.7 43C20.7 43.3 20.5 43.6 20.1 43.6Z" fill="#265EDE"/>
<path d="M34.5 51.2H0.700005C0.400005 51.2 0.100006 50.9 0.100006 50.6C0.100006 50.3 0.400005 50 0.700005 50H34.5C34.8 50 35.1 50.3 35.1 50.6C35.1 50.9 34.9 51.2 34.5 51.2Z" fill="#265EDE"/>
<path d="M12.6 13.4C11.8 13.4 11 13.0999 10.4 12.4999C9.2 11.2999 9.2 9.29995 10.4 8.09995C11.6 6.89995 13.6 6.89995 14.8 8.09995C16 9.29995 16 11.2999 14.8 12.4999C14.2 13.0999 13.4 13.4 12.6 13.4ZM12.6 8.39995C12.1 8.39995 11.6 8.59995 11.3 8.89995C10.6 9.59995 10.6 10.8 11.3 11.6C12 12.3 13.2 12.3 14 11.6C14.7 10.9 14.7 9.69995 14 8.89995C13.6 8.59995 13.1 8.39995 12.6 8.39995Z" fill="#265EDE"/>
<path d="M22.6 46.1C21.8 46.1 21 45.8 20.4 45.2C19.2 44 19.2 42 20.4 40.8C21.6 39.6 23.6 39.6 24.8 40.8C26 42 26 44 24.8 45.2C24.2 45.8 23.4 46.1 22.6 46.1ZM22.6 41.1C22.1 41.1 21.6 41.3 21.3 41.6C20.6 42.3 20.6 43.5 21.3 44.3C22 45 23.2 45 24 44.3C24.7 43.6 24.7 42.4 24 41.6C23.6 41.3 23.1 41.1 22.6 41.1Z" fill="#265EDE"/>
</svg>
