<svg width="21" height="21" viewBox="0 0 21 21" fill="none" xmlns="http://www.w3.org/2000/svg">
<path fill-rule="evenodd" clip-rule="evenodd" d="M15.371 0H15.4388C16.3206 0 17.0318 6.70552e-08 17.6034 0.0550001C18.1939 0.111 18.7086 0.23 19.1705 0.514C19.6393 0.802 20.0323 1.196 20.3196 1.666C20.6029 2.129 20.7216 2.645 20.7785 3.236C20.8323 3.81 20.8323 4.524 20.8323 5.407V5.477C20.8323 6.057 20.8323 6.541 20.7954 6.935C20.7555 7.347 20.6717 7.73 20.4563 8.082C20.2468 8.426 19.9575 8.715 19.6144 8.926C19.2633 9.142 18.8802 9.226 18.4702 9.266C18.0772 9.303 17.5934 9.303 17.0139 9.303H15.9127C15.0787 9.303 14.3835 9.303 13.8319 9.229C13.2493 9.15 12.7236 8.978 12.3007 8.554C11.8778 8.13 11.7062 7.604 11.6274 7.019C11.5536 6.466 11.5536 5.769 11.5536 4.933V3.827C11.5536 3.247 11.5536 2.762 11.5905 2.368C11.6304 1.957 11.7142 1.573 11.9296 1.222C12.1391 0.877 12.4284 0.588 12.7715 0.377C13.1226 0.161 13.5047 0.0769999 13.9157 0.0369999C14.3077 -5.96046e-08 14.7915 0 15.371 0ZM16.1929 5.814C15.7142 5.814 15.4747 5.814 15.3062 5.694C15.2473 5.65102 15.1954 5.59905 15.1526 5.54C15.0329 5.37 15.0329 5.13 15.0329 4.651C15.0329 4.172 15.0329 3.932 15.1526 3.763C15.1954 3.70359 15.2472 3.65129 15.3062 3.608C15.4757 3.488 15.7151 3.488 16.1929 3.488C16.6708 3.488 16.9102 3.488 17.0787 3.608C17.1386 3.65133 17.1901 3.703 17.2333 3.763C17.353 3.932 17.353 4.172 17.353 4.651C17.353 5.13 17.353 5.371 17.2333 5.54C17.1902 5.59913 17.138 5.6511 17.0787 5.694C16.9102 5.814 16.6708 5.814 16.1929 5.814ZM8.94212 0.377C8.593 0.161 8.20996 0.0769999 7.79899 0.0369999C7.40597 -5.96046e-08 6.92318 0 6.34364 0H6.27581C5.39402 0 4.6828 6.70552e-08 4.11123 0.0550001C3.52071 0.111 3.006 0.23 2.54416 0.514C2.07533 0.802 1.68232 1.196 1.39504 1.666C1.11175 2.129 0.993047 2.645 0.936189 3.236C0.882324 3.81 0.882324 4.524 0.882324 5.407V5.477C0.882324 6.057 0.882324 6.541 0.919232 6.935C0.959132 7.347 1.04292 7.73 1.25838 8.082C1.46786 8.426 1.75713 8.715 2.10127 8.926C2.45139 9.142 2.83443 9.226 3.2444 9.266C3.63742 9.303 4.12021 9.303 4.70075 9.303H5.80199C6.6359 9.303 7.33116 9.303 7.88278 9.229C8.46532 9.15 8.991 8.978 9.41394 8.554C9.83688 8.13 10.0084 7.604 10.0873 7.019C10.1611 6.466 10.1611 5.769 10.1611 4.933V3.827C10.1611 3.247 10.1611 2.762 10.1242 2.368C10.0843 1.957 10.0005 1.573 9.78501 1.222C9.57476 0.87773 9.28628 0.588185 8.94312 0.377M4.63691 5.694C4.80549 5.814 5.04489 5.814 5.52269 5.814C6.0005 5.814 6.24089 5.814 6.40947 5.694C6.46838 5.65102 6.52021 5.59905 6.56309 5.54C6.68279 5.37 6.68279 5.13 6.68279 4.651C6.68279 4.172 6.68279 3.932 6.56309 3.763C6.52029 3.70359 6.46845 3.65129 6.40947 3.608C6.2399 3.488 6.0005 3.488 5.52269 3.488C5.04489 3.488 4.80549 3.488 4.63691 3.608C4.57758 3.65121 4.5254 3.70351 4.4823 3.763C4.3626 3.932 4.3626 4.172 4.3626 4.651C4.3626 5.13 4.3626 5.371 4.4823 5.54C4.52548 5.59913 4.57765 5.6511 4.63691 5.694ZM7.88278 10.772C8.46532 10.851 8.991 11.023 9.41394 11.447C9.83688 11.871 10.0084 12.397 10.0873 12.982C10.1611 13.535 10.1611 14.232 10.1611 15.068V16.173C10.1611 16.753 10.1611 17.238 10.1242 17.632C10.0843 18.043 10.0005 18.427 9.78501 18.778C9.57554 19.123 9.28626 19.412 8.94312 19.623C8.592 19.839 8.20996 19.923 7.79899 19.963C7.40597 20 6.92318 20 6.34364 20H6.27581C5.39402 20 4.6828 20 4.11123 19.945C3.52071 19.889 3.006 19.77 2.54416 19.486C2.07606 19.198 1.68236 18.8033 1.39504 18.334C1.11175 17.871 0.993047 17.355 0.936189 16.764C0.882324 16.19 0.882324 15.477 0.882324 14.594V14.524C0.882324 13.944 0.882324 13.459 0.919232 13.066C0.959132 12.654 1.04292 12.271 1.25838 11.919C1.46786 11.575 1.75713 11.286 2.10127 11.075C2.45139 10.859 2.83443 10.775 3.2444 10.735C3.63742 10.698 4.12021 10.698 4.70075 10.698H5.80199C6.6359 10.698 7.33116 10.698 7.88278 10.772ZM5.5217 16.512C5.0429 16.512 4.80449 16.512 4.63592 16.392C4.57658 16.3488 4.5244 16.2965 4.4813 16.237C4.3616 16.068 4.3616 15.828 4.3616 15.349C4.3616 14.87 4.3616 14.629 4.4813 14.46C4.52448 14.4009 4.57666 14.3489 4.63592 14.306C4.80449 14.186 5.04389 14.186 5.5217 14.186C5.9995 14.186 6.2399 14.186 6.40847 14.306C6.46832 14.3493 6.51953 14.4007 6.56209 14.46C6.68179 14.63 6.68179 14.87 6.68179 15.349C6.68179 15.828 6.68179 16.068 6.56209 16.237C6.51929 16.2964 6.46746 16.3487 6.40847 16.392C6.2389 16.512 5.9995 16.512 5.5217 16.512Z" fill="#265EDE"/>
<path d="M11.5532 14.616V14.651H12.9447C12.9447 13.983 12.9447 13.535 12.9807 13.193C13.0136 12.863 13.0734 12.711 13.1403 12.61C13.2253 12.4836 13.3337 12.3747 13.4595 12.289C13.5612 12.222 13.7128 12.162 14.042 12.129C14.3831 12.094 14.83 12.093 15.4963 12.093H17.3517V10.698H15.4614C14.84 10.698 14.3213 10.698 13.9013 10.74C13.4624 10.785 13.0545 10.883 12.6874 11.129C12.4081 11.315 12.1687 11.555 11.9832 11.835C11.7378 12.203 11.64 12.612 11.5951 13.052C11.5532 13.472 11.5532 13.992 11.5532 14.616ZM20.832 16.535V16.512H19.4405C19.4405 16.955 19.4405 17.252 19.4245 17.482C19.4085 17.706 19.3816 17.815 19.3517 17.887C19.2935 18.0283 19.2081 18.1568 19.1002 18.2649C18.9924 18.373 18.8643 18.4587 18.7233 18.517C18.6534 18.546 18.5437 18.573 18.3203 18.589C18.0908 18.604 17.7946 18.605 17.3527 18.605H15.4973V20H17.3756C17.7886 20 18.1327 20 18.415 19.98C18.7034 19.969 18.988 19.9099 19.2569 19.805C19.8818 19.5452 20.3783 19.0474 20.6375 18.421C20.7492 18.151 20.7931 17.872 20.813 17.577C20.832 17.294 20.832 16.949 20.832 16.535ZM12.9447 19.302C12.9483 19.3958 12.9329 19.4894 12.8995 19.5771C12.8662 19.6648 12.8155 19.7449 12.7505 19.8125C12.6856 19.8802 12.6077 19.934 12.5215 19.9707C12.4353 20.0075 12.3426 20.0264 12.249 20.0264C12.1553 20.0264 12.0626 20.0075 11.9765 19.9707C11.8903 19.934 11.8124 19.8802 11.7474 19.8125C11.6825 19.7449 11.6318 19.6648 11.5984 19.5771C11.5651 19.4894 11.5497 19.3958 11.5532 19.302V16.512H12.9447V19.302ZM20.1357 10.698C19.9516 10.6988 19.7752 10.7725 19.645 10.903C19.5148 11.0336 19.4413 11.2104 19.4405 11.395V14.651H20.832V11.395C20.8312 11.2102 20.7575 11.0332 20.6271 10.9027C20.4967 10.7721 20.32 10.6985 20.1357 10.698ZM14.9228 14.617C14.847 14.801 14.847 15.034 14.847 15.5C14.847 15.966 14.847 16.199 14.9228 16.383C15.0242 16.6275 15.2183 16.8217 15.4624 16.923C15.646 17 15.8784 17 16.3432 17C16.8081 17 17.0405 17 17.224 16.924C17.4679 16.8223 17.6617 16.6277 17.7627 16.383C17.8395 16.199 17.8395 15.966 17.8395 15.5C17.8395 15.034 17.8395 14.801 17.7637 14.617C17.6622 14.3725 17.4681 14.1783 17.224 14.077C17.0405 14 16.8081 14 16.3432 14C15.8784 14 15.646 14 15.4624 14.076C15.2185 14.1777 15.0238 14.3723 14.9228 14.617Z" fill="#265EDE"/>
</svg>
