<svg width="119" height="119" viewBox="0 0 119 119" fill="none" xmlns="http://www.w3.org/2000/svg">
<ellipse cx="59.5001" cy="57.8919" rx="56.2838" ry="57.8919" fill="#D9D9D9"/>
<path fill-rule="evenodd" clip-rule="evenodd" d="M119 59.5C119 92.3618 92.3618 119 59.5 119C26.6382 119 0 92.3618 0 59.5C0 26.6382 26.6382 0 59.5 0C92.3618 0 119 26.6382 119 59.5ZM77.35 41.65C77.35 46.3841 75.4694 50.9243 72.1219 54.2719C68.7743 57.6194 64.2341 59.5 59.5 59.5C54.7659 59.5 50.2257 57.6194 46.8781 54.2719C43.5306 50.9243 41.65 46.3841 41.65 41.65C41.65 36.9159 43.5306 32.3757 46.8781 29.0281C50.2257 25.6806 54.7659 23.8 59.5 23.8C64.2341 23.8 68.7743 25.6806 72.1219 29.0281C75.4694 32.3757 77.35 36.9159 77.35 41.65ZM59.5 110.075C69.7118 110.091 79.6871 107.001 88.1016 101.215C91.6954 98.7462 93.2305 94.0457 91.1361 90.2198C86.8105 82.2885 77.8855 77.35 59.5 77.35C41.1145 77.35 32.1895 82.2885 27.8579 90.2198C25.7694 94.0457 27.3045 98.7462 30.8983 101.215C39.3129 107.001 49.2882 110.091 59.5 110.075Z" fill="white"/>
</svg>
