<svg width="23" height="23" viewBox="0 0 23 23" fill="none" xmlns="http://www.w3.org/2000/svg">
<g clip-path="url(#clip0_1_85)">
<path d="M11.5 5.10211C10.3862 5.10211 9.33624 5.3898 8.42401 5.89386C8.48548 6.08565 8.51744 6.28973 8.51744 6.50119C8.51744 7.61505 7.61505 8.51744 6.50119 8.51744C6.28973 8.51744 6.08565 8.48548 5.89386 8.42401C5.3898 9.33869 5.10211 10.3862 5.10211 11.5C5.10211 15.0285 7.97158 17.9004 11.5025 17.9004C15.0334 17.9004 17.9004 15.0285 17.9004 11.5C17.9004 7.97158 15.0285 5.10211 11.5 5.10211Z" fill="#C9C9C9"/>
<path d="M11.5 0.604889C5.48323 0.604889 0.604889 5.48323 0.604889 11.5C0.604889 17.5168 5.48323 22.3976 11.5 22.3976C17.5193 22.3976 22.3976 17.5193 22.3976 11.5C22.3976 5.48077 17.5193 0.604889 11.5 0.604889ZM11.5 18.5126C7.63472 18.5126 4.4874 15.3678 4.4874 11.5C4.4874 10.2878 4.79721 9.14444 5.34062 8.14861C4.8218 7.7847 4.48248 7.18229 4.48248 6.49873C4.48248 5.38488 5.38488 4.48248 6.49873 4.48248C7.18229 4.48248 7.78225 4.8218 8.14861 5.34062C9.14444 4.79721 10.2853 4.4874 11.5 4.4874C15.3653 4.4874 18.5126 7.63226 18.5126 11.5C18.5126 15.3678 15.3678 18.5126 11.5 18.5126Z" fill="#C9C9C9"/>
</g>
<defs>
<clipPath id="clip0_1_85">
<rect width="23" height="23" fill="white"/>
</clipPath>
</defs>
</svg>
